<svg width="99" height="99" viewBox="0 0 99 99" fill="none" xmlns="http://www.w3.org/2000/svg">
<path d="M45 90.1429C44.1429 90.1429 43.2857 89.8572 42.5714 89.2857L36.4286 84.5714C35.5714 84 34.5714 83.5714 33.4286 83.5714C33.2857 83.5714 33.1429 83.5714 33 83.5714C32.8572 83.5714 32.7143 83.5714 32.7143 83.5714L25.2857 84.5714C25.1429 84.5714 24.8571 84.5714 24.7143 84.5714C23 84.5714 21.5714 83.5714 20.8571 82L18 74.8572C17.5714 73.5714 16.5714 72.5714 15.2857 72.1429L8.14287 69.2857C6.42858 68.5714 5.28572 66.8572 5.57143 64.8572L6.57143 57.4286C6.71429 56.1429 6.42858 54.8572 5.57143 53.7143L0.857143 47.5714C-0.285714 46.1429 -0.285714 44 0.857143 42.5714L5.57143 36.4286C6.42858 35.4286 6.71429 34 6.57143 32.7143L5.57143 25.2857C5.28572 23.4286 6.42858 21.5714 8.14287 20.8571L15.2857 18C16.5714 17.5714 17.5714 16.5714 18 15.2857L20.8571 8.14286C21.4286 6.57143 23 5.57143 24.7143 5.57143C24.8571 5.57143 25.1429 5.57143 25.2857 5.57143L32.7143 6.57143C32.8572 6.57143 33.1429 6.57143 33.4286 6.57143C34.5714 6.57143 35.5714 6.14286 36.4286 5.57143L42.5714 0.857143C43.2857 0.285714 44.1429 0 45 0C45.8571 0 46.7143 0.285714 47.4286 0.857143L53.5714 5.57143C54.4286 6.28572 55.5714 6.57143 56.5714 6.57143C56.8572 6.57143 57 6.57143 57.2857 6.57143L64.7143 5.57143C64.8572 5.57143 65.1429 5.57143 65.2857 5.57143C67 5.57143 68.4286 6.57143 69.1429 8.14286L72 15.2857C72.4286 16.5714 73.4286 17.5714 74.7143 18L81.8572 20.8571C83.5715 21.5714 84.7143 23.2857 84.4286 25.1429L83.4286 32.7143C83.2857 34 83.5714 35.2857 84.4286 36.4286L89.1429 42.5714C90.2857 44 90.2857 46.1429 89.1429 47.5714L84.4286 53.7143C83.5714 54.7143 83.2857 56.1429 83.4286 57.4286L84.4286 64.8572C84.7143 66.7143 83.7143 68.5714 81.8572 69.2857L74.7143 72.1429C73.4286 72.5714 72.4286 73.5714 72 74.8572L69.1429 82C68.5714 83.5714 67 84.5714 65.2857 84.5714C65.1429 84.5714 64.8572 84.5714 64.7143 84.5714L57.2857 83.5714C57 83.5714 56.8572 83.5714 56.5714 83.5714C55.4286 83.5714 54.4286 84 53.5714 84.5714L47.4286 89.2857C46.7143 89.8572 45.8571 90.1429 45 90.1429Z" fill="url(#paint0_linear)"/>
<path d="M51 96.1429C50.1429 96.1429 49.2857 95.8572 48.5714 95.2857L42.4286 90.5714C41.5714 90 40.5714 89.5714 39.4286 89.5714C39.2857 89.5714 39.1429 89.5714 39 89.5714C38.8571 89.5714 38.7143 89.5714 38.7143 89.5714L31.2857 90.5714C31.1429 90.5714 30.8571 90.5714 30.7143 90.5714C29 90.5714 27.5714 89.5714 26.8571 88L24 80.8572C23.5714 79.5714 22.5714 78.5714 21.2857 78.1429L14.1429 75.2857C12.4286 74.5714 11.2857 72.8572 11.5714 70.8572L12.5714 63.4286C12.7143 62.1429 12.4286 60.8572 11.5714 59.7143L6.85714 53.5714C5.71429 52.1429 5.71429 50 6.85714 48.5714L11.5714 42.4286C12.4286 41.4286 12.7143 40 12.5714 38.7143L11.5714 31.2857C11.2857 29.4286 12.4286 27.5714 14.1429 26.8571L21.2857 24C22.5714 23.5714 23.5714 22.5714 24 21.2857L26.8571 14.1429C27.4286 12.5714 29 11.5714 30.7143 11.5714C30.8571 11.5714 31.1429 11.5714 31.2857 11.5714L38.7143 12.5714C38.8572 12.5714 39.1429 12.5714 39.4286 12.5714C40.5714 12.5714 41.5714 12.1429 42.4286 11.5714L48.5714 6.85714C49.2857 6.28571 50.1429 6 51 6C51.8571 6 52.7143 6.28571 53.4286 6.85714L59.5714 11.5714C60.4286 12.2857 61.5714 12.5714 62.5714 12.5714C62.8572 12.5714 63 12.5714 63.2857 12.5714L70.7143 11.5714C70.8572 11.5714 71.1429 11.5714 71.2857 11.5714C73 11.5714 74.4286 12.5714 75.1429 14.1429L78 21.2857C78.4286 22.5714 79.4286 23.5714 80.7143 24L87.8572 26.8571C89.5715 27.5714 90.7143 29.2857 90.4286 31.1429L89.4286 38.7143C89.2857 40 89.5714 41.2857 90.4286 42.4286L95.1429 48.5714C96.2857 50 96.2857 52.1429 95.1429 53.5714L90.4286 59.7143C89.5714 60.7143 89.2857 62.1429 89.4286 63.4286L90.4286 70.8572C90.7143 72.7143 89.7143 74.5714 87.8572 75.2857L80.7143 78.1429C79.4286 78.5714 78.4286 79.5714 78 80.8572L75.1429 88C74.5714 89.5714 73 90.5714 71.2857 90.5714C71.1429 90.5714 70.8572 90.5714 70.7143 90.5714L63.2857 89.5714C63 89.5714 62.8572 89.5714 62.5714 89.5714C61.4286 89.5714 60.4286 90 59.5714 90.5714L53.4286 95.2857C52.7143 95.8572 51.8571 96.1429 51 96.1429Z" stroke="#654EA3" stroke-width="5" stroke-miterlimit="10" stroke-linecap="round" stroke-linejoin="round"/>
<path d="M33.7143 53.2859L46.5715 64.143L68.2858 38.2859" stroke="#04E0BC" stroke-width="5" stroke-miterlimit="10" stroke-linecap="round" stroke-linejoin="round"/>
<defs>
<linearGradient id="paint0_linear" x1="45" y1="0" x2="45" y2="90.1429" gradientUnits="userSpaceOnUse">
<stop stop-color="#DCDCE4"/>
<stop offset="1" stop-color="#DCDCE4" stop-opacity="0"/>
</linearGradient>
</defs>
</svg>
