<svg width="30" height="31" viewBox="0 0 30 31" fill="none" xmlns="http://www.w3.org/2000/svg">
<path d="M15 30.0476C14.7143 30.0476 14.4286 29.9524 14.1905 29.7619L12.1429 28.1905C11.8571 28 11.5238 27.8571 11.1429 27.8571C11.0952 27.8571 11.0476 27.8571 11 27.8571C10.9524 27.8571 10.9048 27.8571 10.9048 27.8571L8.42858 28.1905C8.38096 28.1905 8.28571 28.1905 8.2381 28.1905C7.66667 28.1905 7.19048 27.8571 6.95238 27.3333L6 24.9524C5.85714 24.5238 5.52381 24.1905 5.09524 24.0476L2.71429 23.0952C2.14286 22.8571 1.76191 22.2857 1.85714 21.6191L2.19048 19.1429C2.2381 18.7143 2.14286 18.2857 1.85714 17.9048L0.285714 15.8571C-0.0952381 15.381 -0.0952381 14.6667 0.285714 14.1905L1.85714 12.1429C2.14286 11.8095 2.2381 11.3333 2.19048 10.9048L1.85714 8.42857C1.76191 7.80953 2.14286 7.19048 2.71429 6.95238L5.09524 6C5.52381 5.85714 5.85714 5.52381 6 5.09524L6.95238 2.71429C7.14286 2.19048 7.66667 1.85714 8.2381 1.85714C8.28571 1.85714 8.38096 1.85714 8.42858 1.85714L10.9048 2.19048C10.9524 2.19048 11.0476 2.19048 11.1429 2.19048C11.5238 2.19048 11.8571 2.04762 12.1429 1.85714L14.1905 0.285714C14.4286 0.0952381 14.7143 0 15 0C15.2857 0 15.5714 0.0952381 15.8095 0.285714L17.8571 1.85714C18.1429 2.09524 18.5238 2.19048 18.8571 2.19048C18.9524 2.19048 19 2.19048 19.0952 2.19048L21.5714 1.85714C21.6191 1.85714 21.7143 1.85714 21.7619 1.85714C22.3333 1.85714 22.8095 2.19048 23.0476 2.71429L24 5.09524C24.1429 5.52381 24.4762 5.85714 24.9048 6L27.2857 6.95238C27.8572 7.19048 28.2381 7.76191 28.1429 8.38095L27.8095 10.9048C27.7619 11.3333 27.8571 11.7619 28.1429 12.1429L29.7143 14.1905C30.0952 14.6667 30.0952 15.381 29.7143 15.8571L28.1429 17.9048C27.8571 18.2381 27.7619 18.7143 27.8095 19.1429L28.1429 21.6191C28.2381 22.2381 27.9048 22.8571 27.2857 23.0952L24.9048 24.0476C24.4762 24.1905 24.1429 24.5238 24 24.9524L23.0476 27.3333C22.8571 27.8571 22.3333 28.1905 21.7619 28.1905C21.7143 28.1905 21.6191 28.1905 21.5714 28.1905L19.0952 27.8571C19 27.8571 18.9524 27.8571 18.8571 27.8571C18.4762 27.8571 18.1429 28 17.8571 28.1905L15.8095 29.7619C15.5714 29.9524 15.2857 30.0476 15 30.0476Z" fill="#04E0BC"/>
<path d="M10 16.3388L13.719 19.4793L20 12" stroke="#F3F2F6" stroke-width="3" stroke-miterlimit="10" stroke-linecap="round" stroke-linejoin="round"/>
</svg>
