<svg width="133" height="89" viewBox="0 0 133 89" fill="none" xmlns="http://www.w3.org/2000/svg">
<path d="M10.6038 64.0065C11.1919 66.4374 14.4532 67.208 16.4573 65.7117C25.6282 58.8643 39.5413 58.5378 55.2113 58.2114C71.4317 57.8427 89.7745 57.4741 106.846 49.6388C108.116 49.0558 108.767 47.6438 108.438 46.2854L98.3601 4.62827C97.9066 2.75375 95.8273 1.79009 94.0595 2.56121C77.3487 9.85078 59.5073 10.2104 43.6851 10.57C25.8913 10.9407 10.4821 11.3114 1.48358 21.2301C0.858869 21.9187 0.65417 22.8815 0.872802 23.7852L10.6038 64.0065Z" fill="url(#paint0_linear)"/>
<path d="M109.893 20.5507L106.82 8C89.2742 16.8367 70.064 17.2209 53.159 17.6051C34.7172 17.9893 18.7086 18.3735 9.99997 29.3874L21.5261 77.0288C23.7033 74.3394 26.3927 72.1622 29.3383 70.6254" stroke="#04E0BC" stroke-width="5" stroke-miterlimit="10" stroke-linecap="round" stroke-linejoin="round"/>
<path d="M33.0523 85.9937C41.7609 74.9798 57.7695 74.5956 76.2113 74.2114C93.1163 73.8272 112.327 73.443 130 64.6063L118.474 16.9648C100.8 25.8016 81.5902 26.1858 64.6851 26.57C46.2433 26.9542 30.3628 27.3384 21.5261 38.3523L33.0523 85.9937Z" stroke="#654EA3" stroke-width="5" stroke-miterlimit="10" stroke-linecap="round" stroke-linejoin="round"/>
<path d="M69.4024 55.204C69.9485 59.7544 73.5889 61.0286 75.7731 61.0286C78.6854 61.0286 82.5078 59.7544 82.5078 55.204C82.5078 50.6535 78.5034 49.7434 76.1371 48.8333C73.7709 47.9232 70.1305 47.1951 70.1305 43.0087C70.1305 38.8223 73.4068 37.1841 76.1371 37.3661C78.1393 37.3661 81.2337 38.6402 81.9617 41.9166" stroke="#04E0BC" stroke-width="4" stroke-miterlimit="10" stroke-linecap="round" stroke-linejoin="round"/>
<path d="M76.1371 35V65.3972" stroke="#04E0BC" stroke-width="4" stroke-miterlimit="10" stroke-linecap="round" stroke-linejoin="round"/>
<defs>
<linearGradient id="paint0_linear" x1="54.763" y1="0.964844" x2="54.763" y2="69.9937" gradientUnits="userSpaceOnUse">
<stop stop-color="#DCDCE4"/>
<stop offset="1" stop-color="#DCDCE4" stop-opacity="0"/>
</linearGradient>
</defs>
</svg>
