<svg width="267" height="41" viewBox="0 0 267 41" fill="none" xmlns="http://www.w3.org/2000/svg">
<path d="M57.1319 6.40088L66.1709 19.0296L75.2964 6.40088H80.5295V32.2205H74.6909V14.9642L66.8196 25.6467H65.4789L57.6076 14.9642V32.2205H51.769V6.40088H57.1319Z" fill="#654EA3"/>
<path d="M87.1466 6.40088H98.0021C104.706 6.40088 108.166 10.25 108.166 15.6129C108.166 21.1055 103.884 24.4789 97.9156 24.4789H93.0285V32.1772H87.1466V6.40088ZM97.1804 19.8081C100.251 19.8081 102.024 18.2943 102.024 15.4399C102.024 12.7152 100.381 11.1583 97.2669 11.1583H92.9852V19.8081H97.1804Z" fill="#654EA3"/>
<path d="M118.026 6.40088L127.065 19.0296L136.191 6.40088H141.424V32.2205H135.629V14.9642L127.714 25.6467H126.373L118.545 14.9642V32.2205H112.664V6.40088H118.026Z" fill="#654EA3"/>
<path d="M164.043 28.7173C158.205 28.7173 154.139 24.7384 154.139 18.9863C154.139 13.3207 158.075 9.29853 163.87 9.29853C166.508 9.29853 168.887 10.1203 169.882 10.942H170.228L169.752 7.61182C168.844 7.00634 166.638 6.14136 163.524 6.14136C155.956 6.14136 150.55 11.5907 150.55 19.0295C150.55 26.4684 155.956 31.788 163.654 31.788C166.768 31.788 169.103 30.8798 170.055 30.1878L170.574 26.8144H170.185C169.19 27.7658 167.027 28.7173 164.043 28.7173Z" fill="#CFCAE1"/>
<path d="M181.732 12.1531C178.488 12.1531 176.153 13.1911 175.245 14.1858L174.726 16.8672H175.028C176.066 15.9157 178.229 14.921 181.17 14.921C184.327 14.921 186.057 16.478 186.057 19.6784V21.4948C185.019 21.0191 183.03 20.4569 180.91 20.4569C176.283 20.4569 173.558 22.9653 173.558 26.4685C173.558 29.7986 176.196 31.9611 179.872 31.9611C183.332 31.9611 185.538 30.0581 186.316 28.6309V31.4854H189.257V19.3324C189.257 14.4885 186.273 12.1531 181.732 12.1531ZM186.1 26.382C185.538 27.6362 183.678 29.2364 180.824 29.2364C178.402 29.2364 176.845 28.0687 176.845 26.1225C176.845 24.2195 178.359 22.8788 181.602 22.8788C183.505 22.8788 185.322 23.3546 186.1 23.7438V26.382Z" fill="#CFCAE1"/>
<path d="M204.957 12.1531C201.367 12.1531 199.075 14.1858 198.34 15.7427V12.5856H195.355V38.9674L198.556 38.3619V30.0581C199.594 31.0529 201.756 31.8746 204.135 31.8746C209.714 31.8746 213.39 27.7659 213.39 21.8408C213.347 16.0022 209.93 12.1531 204.957 12.1531ZM203.573 29.1067C201.324 29.1067 199.378 28.1552 198.556 27.3335V18.1647C199.161 16.7807 200.978 15.0075 204.005 15.0075C207.811 15.0075 210.06 17.8187 210.06 22.0571C210.06 26.382 207.681 29.1067 203.573 29.1067Z" fill="#CFCAE1"/>
<path d="M221.608 12.5854H218.45V31.442H221.608V12.5854Z" fill="#CFCAE1"/>
<path d="M220.007 4.32495C218.71 4.32495 217.758 5.23318 217.758 6.44415C217.758 7.69837 218.71 8.56335 220.007 8.56335C221.305 8.56335 222.3 7.69837 222.3 6.44415C222.3 5.23318 221.348 4.32495 220.007 4.32495Z" fill="#CFCAE1"/>
<path d="M235.534 29.1065C233.025 29.1065 231.901 27.6361 231.901 25.3439V15.2669H238.518L239.037 12.5854H231.901V8.77954H230.993L225.803 14.6614V15.2669H228.744V25.6466C228.744 29.7985 231.468 31.788 234.928 31.788C236.399 31.788 237.696 31.442 238.518 30.8798L239.08 28.1551H238.734C237.956 28.7606 236.745 29.1065 235.534 29.1065Z" fill="#CFCAE1"/>
<path d="M249.546 12.1531C246.303 12.1531 243.967 13.1911 243.059 14.1858L242.54 16.8672H242.843C243.881 15.9157 246.043 14.921 248.984 14.921C252.141 14.921 253.871 16.478 253.871 19.6784V21.4948C252.833 21.0191 250.844 20.4569 248.725 20.4569C244.097 20.4569 241.372 22.9653 241.372 26.4685C241.372 29.7986 244.011 31.9611 247.687 31.9611C251.147 31.9611 253.352 30.0581 254.088 28.6309V31.4854H257.028V19.3324C257.072 14.4885 254.044 12.1531 249.546 12.1531ZM253.871 26.382C253.309 27.6362 251.449 29.2364 248.595 29.2364C246.173 29.2364 244.616 28.0687 244.616 26.1225C244.616 24.2195 246.13 22.8788 249.373 22.8788C251.276 22.8788 253.093 23.3546 253.871 23.7438V26.382Z" fill="#CFCAE1"/>
<path d="M263.386 3.97876H263.256V31.3986H266.414V3.97876H263.386Z" fill="#CFCAE1"/>
<path d="M15.8291 10.0338C20.1108 17.0401 24.3059 23.9167 28.5876 30.923H15.8291C16.9103 29.1065 17.9916 27.3766 19.0295 25.6466C17.9483 23.9167 16.9103 22.1867 15.8291 20.4135C15.6129 20.7595 15.4831 20.9757 15.3101 21.192C13.4504 24.2627 11.5475 27.3333 9.68776 30.4473C9.42827 30.8365 9.21202 31.0095 8.77954 31.0095C7.56856 30.9662 6.35759 31.0095 5.14662 31.0095H3.07067C7.35232 23.9167 11.5475 16.9968 15.8291 10.0338ZM32.134 30.9662C31.8745 30.9662 31.5717 30.75 31.3987 30.4905C30.7067 29.4093 30.0148 28.2848 29.3228 27.1603C26.9873 23.3544 24.6951 19.5485 22.3597 15.7426C22.23 15.5264 22.1435 15.0939 22.23 14.9641C23.1814 13.3639 24.1329 11.7637 25.1709 10.077C29.4525 17.0833 33.6477 23.9599 37.9293 30.9662C37.7131 31.0095 37.5833 31.0095 37.4103 31.0095C36.5454 31.0095 35.6804 31.0095 34.7722 31.0095C33.9504 30.9662 33.0422 30.9662 32.134 30.9662ZM0 20.5C0 31.8312 9.16878 41 20.5 41C31.8312 41 41 31.8312 41 20.5C41 9.16878 31.8312 0 20.5 0C9.16878 0 0 9.16878 0 20.5Z" fill="url(#paint0_linear)"/>
<defs>
<linearGradient id="paint0_linear" x1="20.5047" y1="41.0088" x2="20.5047" y2="0" gradientUnits="userSpaceOnUse">
<stop stop-color="#343333"/>
<stop offset="1" stop-color="#654EA3"/>
</linearGradient>
</defs>
</svg>
