<svg width="20" height="21" viewBox="0 0 20 21" fill="none" xmlns="http://www.w3.org/2000/svg">
<path d="M4.39199 13.3947L0.580997 9.66226C0.227399 9.30866 0.0505984 8.97471 0.0113098 8.6604C-0.0279788 9.014 0.148822 9.42653 0.580997 9.83906L4.3527 13.5518L4.39199 13.3947Z" fill="#C6650E"/>
<path d="M4.39199 13.3749L0.580997 9.64249C0.227399 9.28889 0.0505984 8.95493 0.0113098 8.64062C-0.0279788 8.99422 0.148822 9.40675 0.580997 9.81928L4.3527 13.5321L4.39199 13.3749Z" fill="#C7660E"/>
<path d="M4.39199 13.3556L0.580997 9.6232C0.227399 9.2696 0.0505984 8.93565 0.0113098 8.62134C-0.0279788 8.97494 0.148822 9.38747 0.580997 9.8L4.3527 13.5128L4.39199 13.3556Z" fill="#C7670E"/>
<path d="M4.39199 13.3163L0.580997 9.58389C0.227399 9.23029 0.0505984 8.89634 0.0113098 8.58203C-0.0279788 8.93563 0.148822 9.34816 0.580997 9.76069L4.3527 13.4735L4.39199 13.3163Z" fill="#C8680E"/>
<path d="M4.39199 13.2965L0.580997 9.56412C0.227399 9.21052 0.0505984 8.87656 0.0113098 8.56226C-0.0279788 8.91585 0.148822 9.32838 0.580997 9.74091L4.3527 13.4537L4.39199 13.2965Z" fill="#C9690E"/>
<path d="M4.39199 13.277L0.580997 9.54458C0.227399 9.19099 0.0505984 8.85703 0.0113098 8.54272C-0.0279788 8.89632 0.148822 9.30885 0.580997 9.72138L4.3527 13.4342L4.39199 13.277Z" fill="#C96A0E"/>
<path d="M4.39199 13.2572L0.580997 9.52481C0.227399 9.17121 0.0505984 8.83726 0.0113098 8.52295C-0.0279788 8.87655 0.148822 9.28908 0.580997 9.70161L4.3527 13.4144L4.39199 13.2572Z" fill="#CA6B0D"/>
<path d="M4.39199 13.2179L0.580997 9.4855C0.227399 9.1319 0.0505984 8.79795 0.0113098 8.48364C-0.0279788 8.83724 0.148822 9.24977 0.580997 9.6623L4.3527 13.3751L4.39199 13.2179Z" fill="#CB6C0D"/>
<path d="M4.39199 13.1984L0.580997 9.46597C0.227399 9.11237 0.0505984 8.77842 0.0113098 8.46411C-0.0279788 8.81771 0.148822 9.23024 0.580997 9.64277L4.3527 13.3555L4.39199 13.1984Z" fill="#CC6D0D"/>
<path d="M4.39199 13.1786L0.580997 9.4462C0.227399 9.0926 0.0505984 8.75864 0.0113098 8.44434C-0.0279788 8.79793 0.148822 9.21046 0.580997 9.62299L4.3527 13.3358L4.39199 13.1786Z" fill="#CC6E0D"/>
<path d="M4.39199 13.1591L0.580997 9.42666C0.227399 9.07307 0.0505984 8.73911 0.0113098 8.4248C-0.0279788 8.7784 0.148822 9.19093 0.580997 9.60346L4.3527 13.3162L4.39199 13.1591Z" fill="#CD6F0D"/>
<path d="M4.39199 13.1198L0.580997 9.38736C0.227399 9.03376 0.0505984 8.69981 0.0113098 8.3855C-0.0279788 8.7391 0.148822 9.15163 0.580997 9.56416L4.3527 13.2769L4.39199 13.1198Z" fill="#CE700D"/>
<path d="M4.39199 13.1L0.580997 9.36758C0.227399 9.01398 0.0505984 8.68003 0.0113098 8.36572C-0.0279788 8.71932 0.148822 9.13185 0.580997 9.54438L4.3527 13.2572L4.39199 13.1Z" fill="#CE710D"/>
<path d="M4.39199 13.0805L0.580997 9.34805C0.227399 8.99445 0.0505984 8.6605 0.0113098 8.34619C-0.0279788 8.69979 0.148822 9.11232 0.580997 9.52485L4.3527 13.2376L4.39199 13.0805Z" fill="#CF720D"/>
<path d="M4.39199 13.0609L0.580997 9.32852C0.227399 8.97492 0.0505984 8.64097 0.0113098 8.32666C-0.0279788 8.68026 0.148822 9.09279 0.580997 9.50532L4.3527 13.2181L4.39199 13.0609Z" fill="#D0730D"/>
<path d="M4.39199 13.0214L0.580997 9.28897C0.227399 8.93537 0.0505984 8.60142 0.0113098 8.28711C-0.0279788 8.64071 0.148822 9.05324 0.580997 9.46577L4.3527 13.1785L4.39199 13.0214Z" fill="#D0740D"/>
<path d="M4.39199 13.0019L0.580997 9.26944C0.227399 8.91584 0.0505984 8.58189 0.0113098 8.26758C-0.0279788 8.62118 0.148822 9.03371 0.580997 9.44624L4.3527 13.159L4.39199 13.0019Z" fill="#D1750D"/>
<path d="M4.39199 12.9821L0.580997 9.24966C0.227399 8.89607 0.0505984 8.56211 0.0113098 8.2478C-0.0279788 8.6014 0.148822 9.01393 0.580997 9.42646L4.3527 13.1392L4.39199 12.9821Z" fill="#D2760D"/>
<path d="M4.39199 12.9625L0.580997 9.23013C0.227399 8.87653 0.0505984 8.54258 0.0113098 8.22827C-0.0279788 8.58187 0.148822 8.9944 0.580997 9.40693L4.3527 13.1197L4.39199 12.9625Z" fill="#D3770C"/>
<path d="M4.39199 12.9235L0.580997 9.19107C0.227399 8.83747 0.0505984 8.50352 0.0113098 8.18921C-0.0279788 8.54281 0.148822 8.95534 0.580997 9.36787L4.3527 13.0806L4.39199 12.9235Z" fill="#D3780C"/>
<path d="M4.39199 12.9037L0.580997 9.17129C0.227399 8.8177 0.0505984 8.48374 0.0113098 8.16943C-0.0279788 8.52303 0.148822 8.93556 0.580997 9.34809L4.3527 13.0609L4.39199 12.9037Z" fill="#D4790C"/>
<path d="M4.39199 12.8842L0.580997 9.15176C0.227399 8.79816 0.0505984 8.46421 0.0113098 8.1499C-0.0279788 8.5035 0.148822 8.91603 0.580997 9.32856L4.3527 13.0413L4.39199 12.8842Z" fill="#D57A0C"/>
<path d="M4.39199 12.8644L0.580997 9.13199C0.227399 8.77839 0.0505984 8.44444 0.0113098 8.13013C-0.0279788 8.48372 0.148822 8.89625 0.580997 9.30879L4.3527 13.0216L4.39199 12.8644Z" fill="#D57B0C"/>
<path d="M4.39199 12.8251L0.580997 9.09268C0.227399 8.73908 0.0505984 8.40513 0.0113098 8.09082C-0.0279788 8.44442 0.148822 8.85695 0.580997 9.26948L4.3527 12.9823L4.39199 12.8251Z" fill="#D67C0C"/>
<path d="M4.39199 12.8056L0.580997 9.07315C0.227399 8.71955 0.0505984 8.3856 0.0113098 8.07129C-0.0279788 8.42489 0.148822 8.83742 0.580997 9.24995L4.3527 12.9627L4.39199 12.8056Z" fill="#D77C0C"/>
<path d="M4.39199 12.7858L0.580997 9.05337C0.227399 8.69978 0.0505984 8.36582 0.0113098 8.05151C-0.0279788 8.40511 0.148822 8.81764 0.580997 9.23017L4.3527 12.9429L4.39199 12.7858Z" fill="#D77D0C"/>
<path d="M4.39199 12.7663L0.580997 9.03384C0.227399 8.68024 0.0505984 8.34629 0.0113098 8.03198C-0.0279788 8.38558 0.148822 8.79811 0.580997 9.21064L4.3527 12.9234L4.39199 12.7663Z" fill="#D87E0C"/>
<path d="M4.39199 12.727L0.580997 8.99454C0.227399 8.64094 0.0505984 8.30698 0.0113098 7.99268C-0.0279788 8.34627 0.148822 8.7588 0.580997 9.17133L4.3527 12.8841L4.39199 12.727Z" fill="#D97F0C"/>
<path d="M4.39199 12.7072L0.580997 8.97476C0.227399 8.62116 0.0505984 8.28721 0.0113098 7.9729C-0.0279788 8.3265 0.148822 8.73903 0.580997 9.15156L4.3527 12.8643L4.39199 12.7072Z" fill="#D9800C"/>
<path d="M4.39199 12.6876L0.580997 8.95523C0.227399 8.60163 0.0505984 8.26768 0.0113098 7.95337C-0.0279788 8.30697 0.148822 8.7195 0.580997 9.13203L4.3527 12.8448L4.39199 12.6876Z" fill="#DA810B"/>
<path d="M4.39199 12.6679L0.580997 8.93545C0.227399 8.58186 0.0505984 8.2479 0.0113098 7.93359C-0.0279788 8.28719 0.148822 8.69972 0.580997 9.11225L4.3527 12.825L4.39199 12.6679Z" fill="#DB820B"/>
<path d="M4.39199 12.6286L0.580997 8.89615C0.227399 8.54255 0.0505984 8.2086 0.0113098 7.89429C-0.0279788 8.24788 0.148822 8.66042 0.580997 9.07295L4.3527 12.7857L4.39199 12.6286Z" fill="#DC830B"/>
<path d="M4.39199 12.609L0.580997 8.87662C0.227399 8.52302 0.0505984 8.18906 0.0113098 7.87476C-0.0279788 8.22835 0.148822 8.64088 0.580997 9.05341L4.3527 12.7662L4.39199 12.609Z" fill="#DC840B"/>
<path d="M4.39199 12.5893L0.580997 8.85684C0.227399 8.50324 0.0505984 8.16929 0.0113098 7.85498C-0.0279788 8.20858 0.148822 8.62111 0.580997 9.03364L4.3527 12.7464L4.39199 12.5893Z" fill="#DD850B"/>
<path d="M4.39199 12.55L0.580997 8.81753C0.227399 8.46394 0.0505984 8.12998 0.0113098 7.81567C-0.0279788 8.16927 0.148822 8.5818 0.580997 8.99433L4.3527 12.7071L4.39199 12.55Z" fill="#DE860B"/>
<path d="M4.39199 12.5304L0.580997 8.798C0.227399 8.4444 0.0505984 8.11045 0.0113098 7.79614C-0.0279788 8.14974 0.148822 8.56227 0.580997 8.9748L4.3527 12.6876L4.39199 12.5304Z" fill="#DE870B"/>
<path d="M4.39199 12.5109L0.580997 8.77847C0.227399 8.42487 0.0505984 8.09092 0.0113098 7.77661C-0.0279788 8.13021 0.148822 8.54274 0.580997 8.95527L4.3527 12.668L4.39199 12.5109Z" fill="#DF880B"/>
<path d="M4.39199 12.4914L0.580997 8.75894C0.227399 8.40534 0.0505984 8.07139 0.0113098 7.75708C-0.0279788 8.11068 0.148822 8.52321 0.580997 8.93574L4.3527 12.6485L4.39199 12.4914Z" fill="#E0890B"/>
<path d="M4.39199 12.4521L0.580997 8.71963C0.227399 8.36604 0.0505984 8.03208 0.0113098 7.71777C-0.0279788 8.07137 0.148822 8.4839 0.580997 8.89643L4.3527 12.6092L4.39199 12.4521Z" fill="#E08A0B"/>
<path d="M4.39199 12.4323L0.580997 8.69986C0.227399 8.34626 0.0505984 8.01231 0.0113098 7.698C-0.0279788 8.0516 0.148822 8.46413 0.580997 8.87666L4.3527 12.5894L4.39199 12.4323Z" fill="#E18B0B"/>
<path d="M4.39199 12.4127L0.580997 8.68033C0.227399 8.32673 0.0505984 7.99278 0.0113098 7.67847C-0.0279788 8.03206 0.148822 8.44459 0.580997 8.85713L4.3527 12.5699L4.39199 12.4127Z" fill="#E28C0B"/>
<path d="M4.39199 12.393L0.580997 8.66055C0.227399 8.30695 0.0505984 7.973 0.0113098 7.65869C-0.0279788 8.01229 0.148822 8.42482 0.580997 8.83735L4.3527 12.5501L4.39199 12.393Z" fill="#E38D0A"/>
<path d="M4.39199 12.3537L0.580997 8.62124C0.227399 8.26765 0.0505984 7.93369 0.0113098 7.61938C-0.0279788 7.97298 0.148822 8.38551 0.580997 8.79804L4.3527 12.5108L4.39199 12.3537Z" fill="#E38E0A"/>
<path d="M4.39199 12.3344L0.580997 8.60196C0.227399 8.24836 0.0505984 7.91441 0.0113098 7.6001C-0.0279788 7.9537 0.148822 8.36623 0.580997 8.77876L4.3527 12.4915L4.39199 12.3344Z" fill="#E48F0A"/>
<path d="M4.39193 12.3139L0.580935 8.58145C0.227338 8.22785 0.0505374 7.8939 0.0112487 7.57959C-0.0280399 7.93319 0.148761 8.34572 0.580935 8.75825L4.35264 12.471L4.39193 12.3139Z" fill="#E5900A"/>
<path d="M4.39193 12.2943L0.580935 8.56192C0.227338 8.20832 0.0505374 7.87437 0.0112487 7.56006C-0.0280399 7.91366 0.148761 8.32619 0.580935 8.73872L4.35264 12.4515L4.39193 12.2943Z" fill="#E5910A"/>
<path d="M4.39272 12.2555L0.581729 8.5231C0.228131 8.1695 0.0513308 7.83555 0.0120422 7.52124C-0.0272464 7.87484 0.149554 8.28737 0.581729 8.6999L4.35344 12.4127L4.39272 12.2555Z" fill="#E6920A"/>
<path d="M14.6666 19.7988L9.95197 17.304L5.21769 19.7595C4.17654 20.3095 3.4497 19.9559 3.41042 18.9934C3.37113 20.0934 4.11761 20.506 5.21769 19.9363L9.95197 17.4808L14.6666 19.9756C15.7667 20.5649 16.5328 20.1327 16.4935 19.0327C16.4542 20.0149 15.7078 20.3488 14.6666 19.7988Z" fill="#C6650E"/>
<path d="M14.6666 19.7792L9.95197 17.2844L5.21769 19.74C4.17654 20.29 3.4497 19.9364 3.41042 18.9738C3.37113 20.0739 4.11761 20.4864 5.21769 19.9168L9.95197 17.4612L14.6666 19.956C15.7667 20.5454 16.5328 20.1132 16.4935 19.0131C16.4542 19.9953 15.7078 20.3293 14.6666 19.7792Z" fill="#C7660E"/>
<path d="M14.6666 19.7595L9.95197 17.2646L5.21769 19.7202C4.17654 20.2702 3.4497 19.9166 3.41042 18.9541C3.37113 20.0541 4.11761 20.4667 5.21769 19.897L9.95197 17.4414L14.6666 19.9363C15.7667 20.5256 16.5328 20.0934 16.4935 18.9933C16.4542 19.9756 15.7078 20.3095 14.6666 19.7595Z" fill="#C7670E"/>
<path d="M14.6666 19.7399L9.95197 17.2451L5.21769 19.7007C4.17654 20.2507 3.4497 19.8971 3.41042 18.9345C3.37113 20.0346 4.11761 20.4471 5.21769 19.8775L9.97161 17.4219L14.6862 19.9167C15.7863 20.5061 16.5525 20.0739 16.5132 18.9738C16.4542 19.9364 15.7078 20.29 14.6666 19.7399Z" fill="#C8680E"/>
<path d="M14.6666 19.7202L9.95197 17.2253L5.21769 19.6809C4.17654 20.2309 3.4497 19.8773 3.41042 18.9148C3.37113 20.0148 4.11761 20.4274 5.21769 19.8577L9.95197 17.4021L14.6666 19.897C15.7667 20.4863 16.5328 20.0541 16.4935 18.954C16.4542 19.9166 15.7078 20.2702 14.6666 19.7202Z" fill="#C9690E"/>
<path d="M14.6666 19.7006L9.95197 17.2058L5.21769 19.6613C4.17654 20.2114 3.4497 19.8578 3.41042 18.8952C3.37113 19.9953 4.11761 20.4078 5.21769 19.8381L9.95197 17.3826L14.6666 19.8774C15.7667 20.4668 16.5328 20.0346 16.4935 18.9345C16.4542 19.8971 15.7078 20.2507 14.6666 19.7006Z" fill="#C96A0E"/>
<path d="M14.6666 19.6809L9.95197 17.186L5.21769 19.6416C4.17654 20.1916 3.4497 19.838 3.41042 18.8754C3.37113 19.9755 4.11761 20.3881 5.21769 19.8184L9.95197 17.3628L14.6666 19.8577C15.7667 20.447 16.5328 20.0148 16.4935 18.9147C16.4542 19.8773 15.7078 20.2309 14.6666 19.6809Z" fill="#CA6B0D"/>
<path d="M14.6666 19.6611L9.95197 17.1663L5.21769 19.6218C4.17654 20.1718 3.4497 19.8182 3.41042 18.8557C3.37113 19.9558 4.11761 20.3683 5.21769 19.7986L9.95197 17.3431L14.6666 19.8379C15.7667 20.4272 16.5328 19.995 16.4935 18.895C16.4542 19.8575 15.7078 20.2111 14.6666 19.6611Z" fill="#CB6C0D"/>
<path d="M14.6666 19.6416L9.95197 17.1467L5.21769 19.6023C4.17654 20.1523 3.4497 19.7987 3.41042 18.8361C3.37113 19.9362 4.11761 20.3488 5.21769 19.7791L9.95197 17.3235L14.6666 19.8184C15.7667 20.4077 16.5328 19.9755 16.4935 18.8754C16.4542 19.838 15.7078 20.1916 14.6666 19.6416Z" fill="#CC6D0D"/>
<path d="M14.6667 19.6223L9.9521 17.1274L5.23747 19.583C4.19632 20.133 3.46948 19.7794 3.43019 18.8169C3.3909 19.9169 4.13739 20.3295 5.23747 19.7598L9.97174 17.3042L14.6864 19.7991C15.7865 20.3884 16.5526 19.9562 16.5133 18.8561C16.4544 19.8187 15.7079 20.1723 14.6667 19.6223Z" fill="#CC6E0D"/>
<path d="M14.6666 19.6025L9.95197 17.1077L5.21769 19.5632C4.17654 20.1132 3.4497 19.7596 3.41042 18.7971C3.37113 19.8972 4.11761 20.3097 5.21769 19.74L9.95197 17.2845L14.6666 19.7793C15.7667 20.3686 16.5328 19.9364 16.4935 18.8364C16.4542 19.7989 15.7078 20.1525 14.6666 19.6025Z" fill="#CD6F0D"/>
<path d="M14.6666 19.5827L9.95197 17.0879L5.21769 19.5434C4.17654 20.0935 3.4497 19.7399 3.41042 18.7773C3.37113 19.8774 4.11761 20.2899 5.21769 19.7202L9.95197 17.2647L14.6666 19.7595C15.7667 20.3488 16.5328 19.9167 16.4935 18.8166C16.4542 19.7792 15.7078 20.1328 14.6666 19.5827Z" fill="#CE700D"/>
<path d="M14.6666 19.5632L9.95197 17.0684L5.21769 19.5239C4.17654 20.0739 3.4497 19.7203 3.41042 18.7578C3.37113 19.8579 4.11761 20.2704 5.21769 19.7007L9.95197 17.2452L14.6666 19.74C15.7667 20.3293 16.5328 19.8971 16.4935 18.7971C16.4542 19.7596 15.7078 20.1132 14.6666 19.5632Z" fill="#CE710D"/>
<path d="M14.6666 19.5437L9.95197 17.0488L5.21769 19.5044C4.17654 20.0544 3.4497 19.7008 3.41042 18.7382C3.37113 19.8383 4.11761 20.2509 5.21769 19.6812L9.97161 17.2256L14.6862 19.7205C15.7863 20.3098 16.5525 19.8776 16.5132 18.7775C16.4542 19.7401 15.7078 20.0937 14.6666 19.5437Z" fill="#CF720D"/>
<path d="M14.6666 19.5041L9.95197 17.0093L5.21769 19.4648C4.17654 20.0149 3.4497 19.6613 3.41042 18.6987C3.37113 19.7988 4.11761 20.2113 5.21769 19.6416L9.95197 17.1861L14.6666 19.6809C15.7667 20.2702 16.5328 19.8381 16.4935 18.738C16.4542 19.7202 15.7078 20.0738 14.6666 19.5041Z" fill="#D0730D"/>
<path d="M14.6666 19.4846L9.95197 16.9897L5.21769 19.4453C4.17654 19.9953 3.4497 19.6417 3.41042 18.6792C3.37113 19.7792 4.11761 20.1918 5.21769 19.6221L9.95197 17.1665L14.6666 19.6614C15.7667 20.2507 16.5328 19.8185 16.4935 18.7184C16.4542 19.7007 15.7078 20.0543 14.6666 19.4846Z" fill="#D0740D"/>
<path d="M14.6666 19.465L9.95197 16.9702L5.21769 19.4258C4.17654 19.9561 3.4497 19.6222 3.41042 18.6596C3.37113 19.7597 4.11761 20.1722 5.21769 19.6026L9.95197 17.147L14.6666 19.6418C15.7667 20.2312 16.5328 19.799 16.4935 18.6989C16.4542 19.6811 15.7078 20.0347 14.6666 19.465Z" fill="#D1750D"/>
<path d="M14.6666 19.4453L9.95197 16.9504L5.21769 19.406C4.17654 19.9364 3.4497 19.6024 3.41042 18.6398C3.37113 19.7399 4.11761 20.1525 5.21769 19.5828L9.95197 17.1272L14.6666 19.6221C15.7667 20.2114 16.5328 19.7792 16.4935 18.6791C16.4542 19.6614 15.7078 19.9953 14.6666 19.4453Z" fill="#D2760D"/>
<path d="M14.6667 19.4257L9.9521 16.9309L5.23747 19.3864C4.19632 19.9168 3.46948 19.5829 3.43019 18.6203C3.3909 19.7204 4.13739 20.1329 5.23747 19.5632L9.97174 17.1077L14.6864 19.6025C15.7865 20.1919 16.5526 19.7597 16.5133 18.6596C16.4544 19.6418 15.7079 19.9758 14.6667 19.4257Z" fill="#D3770C"/>
<path d="M14.6666 19.406L9.95197 16.9111L5.21769 19.3667C4.17654 19.8971 3.4497 19.5631 3.41042 18.6005C3.37113 19.7006 4.11761 20.1132 5.21769 19.5435L9.95197 17.0879L14.6666 19.5828C15.7667 20.1721 16.5328 19.7399 16.4935 18.6398C16.4542 19.622 15.7078 19.956 14.6666 19.406Z" fill="#D3780C"/>
<path d="M14.6666 19.3862L9.95197 16.8914L5.21769 19.3469C4.17654 19.8773 3.4497 19.5433 3.41042 18.5808C3.37113 19.6808 4.11761 20.0934 5.21769 19.5237L9.95197 17.0682L14.6666 19.563C15.7667 20.1523 16.5328 19.7201 16.4935 18.6201C16.4542 19.6023 15.7078 19.9362 14.6666 19.3862Z" fill="#D4790C"/>
<path d="M14.6666 19.3667L9.95197 16.8718L5.21769 19.3274C4.17654 19.8578 3.4497 19.5238 3.41042 18.5612C3.37113 19.6613 4.11761 20.0738 5.21769 19.5042L9.95197 17.0486L14.6666 19.5435C15.7667 20.1328 16.5328 19.7006 16.4935 18.6005C16.4542 19.5827 15.7078 19.9167 14.6666 19.3667Z" fill="#D57A0C"/>
<path d="M14.6666 19.3471L9.95197 16.8523L5.21769 19.3078C4.17654 19.8382 3.4497 19.5043 3.41042 18.5417C3.37113 19.6418 4.11761 20.0543 5.21769 19.4846L9.97161 17.0291L14.6862 19.5239C15.7863 20.1132 16.5525 19.6811 16.5132 18.581C16.4542 19.5632 15.7078 19.8972 14.6666 19.3471Z" fill="#D57B0C"/>
<path d="M14.6666 19.3273L9.95197 16.8325L5.21769 19.2881C4.17654 19.8185 3.4497 19.4845 3.41042 18.5219C3.37113 19.622 4.11761 20.0345 5.21769 19.4649L9.95197 17.0093L14.6666 19.5041C15.7667 20.0935 16.5328 19.6613 16.4935 18.5612C16.4542 19.5434 15.7078 19.8774 14.6666 19.3273Z" fill="#D67C0C"/>
<path d="M14.6666 19.3076L9.95197 16.8127L5.21769 19.2683C4.17654 19.7987 3.4497 19.4647 3.41042 18.5022C3.37113 19.6022 4.11761 20.0148 5.21769 19.4451L9.95197 16.9895L14.6666 19.4844C15.7667 20.0737 16.5328 19.6415 16.4935 18.5414C16.4542 19.5237 15.7078 19.8576 14.6666 19.3076Z" fill="#D77C0C"/>
<path d="M14.6666 19.288L9.95197 16.7932L5.21769 19.2488C4.17654 19.7791 3.4497 19.4452 3.41042 18.4826C3.37113 19.5827 4.11761 19.9952 5.21769 19.4255L9.95197 16.97L14.6666 19.4648C15.7667 20.0542 16.5328 19.622 16.4935 18.5219C16.4542 19.4845 15.7078 19.8381 14.6666 19.288Z" fill="#D77D0C"/>
<path d="M14.6666 19.2685L9.95197 16.7737L5.21769 19.2292C4.17654 19.7596 3.4497 19.4257 3.41042 18.4631C3.37113 19.5632 4.11761 19.9757 5.21769 19.406L9.95197 16.9505L14.6666 19.4453C15.7667 20.0346 16.5328 19.6025 16.4935 18.5024C16.4542 19.465 15.7078 19.8186 14.6666 19.2685Z" fill="#D87E0C"/>
<path d="M14.6666 19.2487L9.95197 16.7539L5.21769 19.2094C4.17654 19.7398 3.4497 19.4059 3.41042 18.4433C3.37113 19.5434 4.11761 19.9559 5.21769 19.3862L9.95197 16.9307L14.6666 19.4255C15.7667 20.0149 16.5328 19.5827 16.4935 18.4826C16.4542 19.4452 15.7078 19.7988 14.6666 19.2487Z" fill="#D97F0C"/>
<path d="M14.6667 19.229L9.9521 16.7341L5.23747 19.1897C4.19632 19.7201 3.46948 19.3861 3.43019 18.4235C3.3909 19.5236 4.13739 19.9362 5.23747 19.3665L9.97174 16.9109L14.6864 19.4058C15.7865 19.9951 16.5526 19.5629 16.5133 18.4628C16.4544 19.4254 15.7079 19.779 14.6667 19.229Z" fill="#D9800C"/>
<path d="M14.6666 19.2094L9.95197 16.7146L5.21769 19.1701C4.17654 19.7005 3.4497 19.3666 3.41042 18.404C3.37113 19.5041 4.11761 19.9166 5.21769 19.3469L9.95197 16.8914L14.6666 19.3862C15.7667 19.9756 16.5328 19.5434 16.4935 18.4433C16.4542 19.4059 15.7078 19.7595 14.6666 19.2094Z" fill="#DA810B"/>
<path d="M14.6666 19.1899L9.95197 16.6951L5.21769 19.1506C4.17654 19.681 3.4497 19.347 3.41042 18.3845C3.37113 19.4846 4.11761 19.8971 5.21769 19.3274L9.95197 16.8719L14.6666 19.3667C15.7667 19.956 16.5328 19.5238 16.4935 18.4238C16.4542 19.3863 15.7078 19.7399 14.6666 19.1899Z" fill="#DB820B"/>
<path d="M14.6666 19.1704L9.95197 16.6755L5.21769 19.1311C4.17654 19.6615 3.4497 19.3275 3.41042 18.3649C3.37113 19.465 4.11761 19.8776 5.21769 19.3079L9.95197 16.8523L14.6666 19.3472C15.7667 19.9365 16.5328 19.5043 16.4935 18.4042C16.4542 19.3668 15.7078 19.7204 14.6666 19.1704Z" fill="#DC830B"/>
<path d="M14.6666 19.1506L9.95197 16.6558L5.21769 19.1113C4.17654 19.6417 3.4497 19.3077 3.41042 18.3452C3.37113 19.4453 4.11761 19.8578 5.21769 19.2881L9.97161 16.8326L14.6862 19.3274C15.7863 19.9167 16.5525 19.4845 16.5132 18.3845C16.4542 19.347 15.7078 19.7006 14.6666 19.1506Z" fill="#DC840B"/>
<path d="M14.6666 19.1311L9.95197 16.6362L5.21769 19.0918C4.17654 19.6222 3.4497 19.2882 3.41042 18.3256C3.37113 19.4257 4.11761 19.8383 5.21769 19.2686L9.95197 16.813L14.6666 19.3079C15.7667 19.8972 16.5328 19.465 16.4935 18.3649C16.4542 19.3275 15.7078 19.6811 14.6666 19.1311Z" fill="#DD850B"/>
<path d="M14.6666 19.1113L9.95197 16.6165L5.21769 19.072C4.17654 19.6024 3.4497 19.2684 3.41042 18.3059C3.37113 19.4059 4.11761 19.8185 5.21769 19.2488L9.95197 16.7933L14.6666 19.2881C15.7667 19.8774 16.5328 19.4452 16.4935 18.3452C16.4542 19.3077 15.7078 19.6613 14.6666 19.1113Z" fill="#DE860B"/>
<path d="M14.6666 19.0917L9.95197 16.5969L5.21769 19.0525C4.17654 19.5829 3.4497 19.2489 3.41042 18.2863C3.37113 19.3864 4.11761 19.7989 5.21769 19.2293L9.95197 16.7737L14.6666 19.2685C15.7667 19.8579 16.5328 19.4257 16.4935 18.3256C16.4542 19.2882 15.7078 19.6418 14.6666 19.0917Z" fill="#DE870B"/>
<path d="M14.6666 19.0524L9.95197 16.5576L5.21769 19.0132C4.17654 19.5436 3.4497 19.2096 3.41042 18.247C3.37113 19.3471 4.11761 19.7596 5.21769 19.19L9.95197 16.7344L14.6666 19.2292C15.7667 19.8186 16.5328 19.3864 16.4935 18.2863C16.4542 19.2685 15.7078 19.6221 14.6666 19.0524Z" fill="#DF880B"/>
<path d="M14.6667 19.0327L9.9521 16.5378L5.23747 18.9934C4.19632 19.5238 3.46948 19.1898 3.43019 18.2273C3.3909 19.3273 4.13739 19.7399 5.23747 19.1702L9.97174 16.7146L14.6864 19.2095C15.7865 19.7988 16.5526 19.3666 16.5133 18.2665C16.4544 19.2488 15.7079 19.6024 14.6667 19.0327Z" fill="#E0890B"/>
<path d="M14.6666 19.0131L9.95197 16.5183L5.21769 18.9738C4.17654 19.5042 3.4497 19.1703 3.41042 18.2077C3.37113 19.3078 4.11761 19.7203 5.21769 19.1506L9.95197 16.6951L14.6666 19.1899C15.7667 19.7793 16.5328 19.3471 16.4935 18.247C16.4542 19.2292 15.7078 19.5828 14.6666 19.0131Z" fill="#E08A0B"/>
<path d="M14.6666 18.9934L9.95197 16.4985L5.21769 18.9541C4.17654 19.4845 3.4497 19.1505 3.41042 18.1879C3.37113 19.288 4.11761 19.7006 5.21769 19.1309L9.95197 16.6753L14.6666 19.1702C15.7667 19.7595 16.5328 19.3273 16.4935 18.2272C16.4542 19.2094 15.7078 19.563 14.6666 18.9934Z" fill="#E18B0B"/>
<path d="M14.6666 18.9738L9.95197 16.479L5.21769 18.9345C4.17654 19.4649 3.4497 19.131 3.41042 18.1684C3.37113 19.2685 4.11761 19.681 5.21769 19.1113L9.95197 16.6558L14.6666 19.1506C15.7667 19.74 16.5328 19.3078 16.4935 18.2077C16.4542 19.1899 15.7078 19.5239 14.6666 18.9738Z" fill="#E28C0B"/>
<path d="M14.6666 18.9545L9.95197 16.4597L5.21769 18.9153C4.17654 19.4457 3.4497 19.1117 3.41042 18.1491C3.37113 19.2492 4.11761 19.6617 5.21769 19.0921L9.97161 16.6365L14.6862 19.1313C15.7863 19.7207 16.5525 19.2885 16.5132 18.1884C16.4542 19.1706 15.7078 19.5046 14.6666 18.9545Z" fill="#E38D0A"/>
<path d="M14.6666 18.9348L9.95197 16.4399L5.21769 18.8955C4.17654 19.4259 3.4497 19.0919 3.41042 18.1294C3.37113 19.2294 4.11761 19.642 5.21769 19.0723L9.95197 16.6167L14.6666 19.1116C15.7667 19.7009 16.5328 19.2687 16.4935 18.1686C16.4542 19.1509 15.7078 19.4848 14.6666 18.9348Z" fill="#E38E0A"/>
<path d="M14.6662 18.9143L9.9516 16.4194L5.21732 18.875C4.17618 19.4054 3.44934 19.0714 3.41005 18.1088C3.37076 19.2089 4.11724 19.6215 5.21732 19.0518L9.9516 16.5962L14.6662 19.0911C15.7663 19.6804 16.5324 19.2482 16.4932 18.1481C16.4539 19.1303 15.7074 19.4643 14.6662 18.9143Z" fill="#E48F0A"/>
<path d="M14.6662 18.8947L9.9516 16.3999L5.21732 18.8554C4.17618 19.3858 3.44934 19.0519 3.41005 18.0893C3.37076 19.1894 4.11724 19.6019 5.21732 19.0322L9.9516 16.5767L14.6662 19.0715C15.7663 19.6609 16.5324 19.2287 16.4932 18.1286C16.4539 19.1108 15.7074 19.4448 14.6662 18.8947Z" fill="#E5900A"/>
<path d="M14.6662 18.8754L9.9516 16.3806L5.21732 18.8362C4.17618 19.3665 3.44934 19.0326 3.41005 18.07C3.37076 19.1701 4.11724 19.5826 5.21732 19.013L9.9516 16.5574L14.6662 19.0522C15.7663 19.6416 16.5324 19.2094 16.4932 18.1093C16.4539 19.0915 15.7074 19.4255 14.6662 18.8754Z" fill="#E5910A"/>
<path d="M14.6666 18.8559L9.95197 16.3611L5.21769 18.8166C4.17654 19.347 3.4497 19.0131 3.41042 18.0505C3.37113 19.1506 4.11761 19.5631 5.21769 18.9934L9.95197 16.5379L14.6666 19.0327C15.7667 19.622 16.5328 19.1899 16.4935 18.0898C16.4542 19.072 15.7078 19.406 14.6666 18.8559Z" fill="#E6920A"/>
<path d="M19.4199 9.74087L15.5892 13.434L15.6089 13.5912L19.4199 9.91767C19.852 9.50514 20.0485 9.09261 19.9896 8.73901C19.9699 9.05332 19.7735 9.38728 19.4199 9.74087Z" fill="#C6650E"/>
<path d="M19.4199 9.7211L15.5892 13.4142L15.6089 13.5714L19.4199 9.8979C19.852 9.48537 20.0485 9.07284 19.9896 8.71924C19.9699 9.0139 19.7735 9.3675 19.4199 9.7211Z" fill="#C7660E"/>
<path d="M19.4199 9.68192L15.5892 13.3947L15.6089 13.5519L19.4199 9.87837C19.852 9.46584 20.0485 9.0533 19.9896 8.69971C19.9699 8.99437 19.7735 9.34797 19.4199 9.68192Z" fill="#C7670E"/>
<path d="M19.4199 9.66239L15.5892 13.3752L15.6089 13.5323L19.4199 9.85883C19.852 9.4463 20.0485 9.03377 19.9896 8.68018C19.9699 8.97484 19.7735 9.30879 19.4199 9.66239Z" fill="#C8680E"/>
<path d="M19.4199 9.64249L15.5892 13.3356L15.6089 13.4928L19.4199 9.81928C19.852 9.40675 20.0485 8.99422 19.9896 8.64062C19.9699 8.95493 19.7735 9.28889 19.4199 9.64249Z" fill="#C9690E"/>
<path d="M19.4199 9.6232L15.5892 13.3163L15.6089 13.4735L19.4199 9.8C19.852 9.38747 20.0485 8.97494 19.9896 8.62134C19.9699 8.916 19.7735 9.2696 19.4199 9.6232Z" fill="#C96A0E"/>
<path d="M19.4199 9.58402L15.5892 13.2968L15.6089 13.454L19.4199 9.78047C19.852 9.36793 20.0485 8.9554 19.9896 8.60181C19.9699 8.89647 19.7735 9.25007 19.4199 9.58402Z" fill="#CA6B0D"/>
<path d="M19.4199 9.56425L15.5892 13.277L15.6089 13.4342L19.4199 9.76069C19.852 9.34816 20.0485 8.93563 19.9896 8.58203C19.9699 8.8767 19.7735 9.21065 19.4199 9.56425Z" fill="#CB6C0D"/>
<path d="M19.4199 9.54458L15.5892 13.2377L15.6089 13.3949L19.4199 9.72138C19.852 9.30885 20.0485 8.89632 19.9896 8.54272C19.9699 8.85703 19.7735 9.19099 19.4199 9.54458Z" fill="#CC6D0D"/>
<path d="M19.4199 9.52481L15.5892 13.2179L15.6089 13.3751L19.4199 9.70161C19.852 9.28908 20.0485 8.87655 19.9896 8.52295C19.9699 8.81761 19.7735 9.17121 19.4199 9.52481Z" fill="#CC6E0D"/>
<path d="M19.4199 9.48563L15.5892 13.1984L15.6089 13.3556L19.4199 9.68208C19.852 9.26955 20.0485 8.85702 19.9896 8.50342C19.9699 8.79808 19.7735 9.15168 19.4199 9.48563Z" fill="#CD6F0D"/>
<path d="M19.4199 9.46586L15.5892 13.1786L15.6089 13.3358L19.4199 9.6623C19.852 9.24977 20.0485 8.83724 19.9896 8.48364C19.9699 8.77831 19.7735 9.11226 19.4199 9.46586Z" fill="#CE700D"/>
<path d="M19.4199 9.4462L15.5892 13.1393L15.6089 13.2965L19.4199 9.62299C19.852 9.21046 20.0485 8.79793 19.9896 8.44434C19.9699 8.75864 19.7735 9.0926 19.4199 9.4462Z" fill="#CE710D"/>
<path d="M19.4199 9.42666L15.5892 13.1198L15.6089 13.2769L19.4199 9.60346C19.852 9.19093 20.0485 8.7784 19.9896 8.4248C19.9699 8.71947 19.7735 9.07307 19.4199 9.42666Z" fill="#CF720D"/>
<path d="M19.4199 9.38724L15.5892 13.1L15.6089 13.2572L19.4199 9.58369C19.852 9.17116 20.0485 8.75863 19.9896 8.40503C19.9699 8.69969 19.7735 9.05329 19.4199 9.38724Z" fill="#D0730D"/>
<path d="M19.4199 9.36771L15.5892 13.0805L15.6089 13.2376L19.4199 9.56416C19.852 9.15163 20.0485 8.7391 19.9896 8.3855C19.9699 8.68016 19.7735 9.01412 19.4199 9.36771Z" fill="#D0740D"/>
<path d="M19.4199 9.34805L15.5892 13.0412L15.6089 13.1983L19.4199 9.52485C19.852 9.11232 20.0485 8.69979 19.9896 8.34619C19.9699 8.6605 19.7735 8.99445 19.4199 9.34805Z" fill="#D1750D"/>
<path d="M19.4199 9.32852L15.5892 13.0216L15.6089 13.1788L19.4199 9.50532C19.852 9.09279 20.0485 8.68026 19.9896 8.32666C19.9699 8.62132 19.7735 8.97492 19.4199 9.32852Z" fill="#D2760D"/>
<path d="M19.4199 9.2891L15.5892 13.0019L15.6089 13.159L19.4199 9.48554C19.852 9.07301 20.0485 8.66048 19.9896 8.30688C19.9699 8.60155 19.7735 8.95515 19.4199 9.2891Z" fill="#D3770C"/>
<path d="M19.4199 9.26932L15.5892 12.9821L15.6089 13.1393L19.4199 9.46577C19.852 9.05324 20.0485 8.64071 19.9896 8.28711C19.9699 8.58177 19.7735 8.91573 19.4199 9.26932Z" fill="#D3780C"/>
<path d="M19.4199 9.24966L15.5892 12.9428L15.6089 13.0999L19.4199 9.42646C19.852 9.01393 20.0485 8.6014 19.9896 8.2478C19.9699 8.56211 19.7735 8.89607 19.4199 9.24966Z" fill="#D4790C"/>
<path d="M19.4199 9.23013L15.5892 12.9233L15.6089 13.0804L19.4199 9.40693C19.852 8.9944 20.0485 8.58187 19.9896 8.22827C19.9699 8.52294 19.7735 8.87653 19.4199 9.23013Z" fill="#D57A0C"/>
<path d="M19.4199 9.19096L15.5892 12.9037L15.6089 13.0609L19.4199 9.3874C19.852 8.97487 20.0485 8.56234 19.9896 8.20874C19.9699 8.5034 19.7735 8.857 19.4199 9.19096Z" fill="#D57B0C"/>
<path d="M19.4199 9.17142L15.5892 12.8842L15.6089 13.0414L19.4199 9.36787C19.852 8.95534 20.0485 8.54281 19.9896 8.18921C19.9699 8.48387 19.7735 8.81783 19.4199 9.17142Z" fill="#D67C0C"/>
<path d="M19.4199 9.15176L15.5892 12.8449L15.6089 13.002L19.4199 9.32856C19.852 8.91603 20.0485 8.5035 19.9896 8.1499C19.9699 8.46421 19.7735 8.79816 19.4199 9.15176Z" fill="#D77C0C"/>
<path d="M19.4199 9.13199L15.5892 12.8251L15.6089 12.9823L19.4199 9.30879C19.852 8.89625 20.0485 8.48372 19.9896 8.13013C19.9699 8.42479 19.7735 8.77839 19.4199 9.13199Z" fill="#D77D0C"/>
<path d="M19.4199 9.09281L15.5892 12.8056L15.6089 12.9627L19.4199 9.28925C19.852 8.87672 20.0485 8.46419 19.9896 8.1106C19.9699 8.40526 19.7735 8.75886 19.4199 9.09281Z" fill="#D87E0C"/>
<path d="M19.4199 9.07304L15.5892 12.7858L15.6089 12.943L19.4199 9.26948C19.852 8.85695 20.0485 8.44442 19.9896 8.09082C19.9699 8.38548 19.7735 8.71944 19.4199 9.07304Z" fill="#D97F0C"/>
<path d="M19.4199 9.05337L15.5892 12.7465L15.6089 12.9037L19.4199 9.23017C19.852 8.81764 20.0485 8.40511 19.9896 8.05151C19.9699 8.36582 19.7735 8.69978 19.4199 9.05337Z" fill="#D9800C"/>
<path d="M19.4199 9.03384L15.5892 12.727L15.6089 12.8841L19.4199 9.21064C19.852 8.79811 20.0485 8.38558 19.9896 8.03198C19.9699 8.32665 19.7735 8.68024 19.4199 9.03384Z" fill="#DA810B"/>
<path d="M19.4199 8.99442L15.5892 12.7072L15.6089 12.8644L19.4199 9.19087C19.852 8.77834 20.0485 8.3658 19.9896 8.01221C19.9699 8.30687 19.7735 8.66047 19.4199 8.99442Z" fill="#DB820B"/>
<path d="M19.4199 8.97489L15.5892 12.6877L15.6089 12.8448L19.4199 9.17133C19.852 8.7588 20.0485 8.34627 19.9896 7.99268C19.9699 8.28734 19.7735 8.62129 19.4199 8.97489Z" fill="#DC830B"/>
<path d="M19.4199 8.95523L15.5892 12.6484L15.6089 12.8055L19.4199 9.13203C19.852 8.7195 20.0485 8.30697 19.9896 7.95337C19.9699 8.26768 19.7735 8.60163 19.4199 8.95523Z" fill="#DC840B"/>
<path d="M19.4199 8.93545L15.5892 12.6286L15.6089 12.7857L19.4199 9.11225C19.852 8.69972 20.0485 8.28719 19.9896 7.93359C19.9699 8.22826 19.7735 8.58186 19.4199 8.93545Z" fill="#DD850B"/>
<path d="M19.4199 8.89628L15.5892 12.6091L15.6089 12.7662L19.4199 9.09272C19.852 8.68019 20.0485 8.26766 19.9896 7.91406C19.9699 8.20873 19.7735 8.56232 19.4199 8.89628Z" fill="#DE860B"/>
<path d="M19.4199 8.8765L15.5892 12.5893L15.6089 12.7464L19.4199 9.07295C19.852 8.66042 20.0485 8.24788 19.9896 7.89429C19.9699 8.18895 19.7735 8.5229 19.4199 8.8765Z" fill="#DE870B"/>
<path d="M19.4199 8.85684L15.5892 12.55L15.6089 12.7071L19.4199 9.03364C19.852 8.62111 20.0485 8.20858 19.9896 7.85498C19.9699 8.16929 19.7735 8.50324 19.4199 8.85684Z" fill="#DF880B"/>
<path d="M19.4199 8.83731L15.5892 12.5304L15.6089 12.6876L19.4199 9.01411C19.852 8.60158 20.0485 8.18905 19.9896 7.83545C19.9699 8.13011 19.7735 8.48371 19.4199 8.83731Z" fill="#E0890B"/>
<path d="M19.4199 8.79789L15.5892 12.5107L15.6089 12.6678L19.4199 8.99433C19.852 8.5818 20.0485 8.16927 19.9896 7.81567C19.9699 8.11034 19.7735 8.46394 19.4199 8.79789Z" fill="#E08A0B"/>
<path d="M19.4199 8.77836L15.5892 12.4911L15.6089 12.6483L19.4199 8.9748C19.852 8.56227 20.0485 8.14974 19.9896 7.79614C19.9699 8.09081 19.7735 8.42476 19.4199 8.77836Z" fill="#E18B0B"/>
<path d="M19.4199 8.75894L15.5892 12.4521L15.6089 12.6092L19.4199 8.93574C19.852 8.52321 20.0485 8.11068 19.9896 7.75708C19.9699 8.07139 19.7735 8.40534 19.4199 8.75894Z" fill="#E28C0B"/>
<path d="M19.4199 8.73916L15.5892 12.4323L15.6089 12.5894L19.4199 8.91596C19.852 8.50343 20.0485 8.0909 19.9896 7.7373C19.9699 8.03197 19.7735 8.38557 19.4199 8.73916Z" fill="#E38D0A"/>
<path d="M19.4199 8.70023L15.5892 12.413L15.6089 12.5702L19.4199 8.89668C19.852 8.48415 20.0485 8.07162 19.9896 7.71802C19.9699 8.01268 19.7735 8.36628 19.4199 8.70023Z" fill="#E38E0A"/>
<path d="M19.4196 8.67948L15.589 12.3923L15.6086 12.5494L19.4196 8.87592C19.8518 8.46339 20.0482 8.05086 19.9893 7.69727C19.9697 7.99193 19.7732 8.32588 19.4196 8.67948Z" fill="#E48F0A"/>
<path d="M19.4196 8.66031L15.589 12.3534L15.6086 12.5106L19.4196 8.83711C19.8518 8.42458 20.0482 8.01204 19.9893 7.65845C19.9697 7.95311 19.7732 8.30671 19.4196 8.66031Z" fill="#E5900A"/>
<path d="M19.4196 8.64078L15.589 12.3339L15.6086 12.4911L19.4196 8.81757C19.8518 8.40504 20.0482 7.99251 19.9893 7.63892C19.9697 7.93358 19.7732 8.28718 19.4196 8.64078Z" fill="#E5910A"/>
<path d="M19.4201 8.6016L15.5894 12.3144L15.6091 12.4715L19.4201 8.79804C19.8522 8.38551 20.0487 7.97298 19.9897 7.61938C19.9701 7.91405 19.7737 8.26765 19.4201 8.6016Z" fill="#E6920A"/>
<path d="M8.92956 0.920842C9.53854 -0.31675 10.5207 -0.297105 11.1297 0.920842L13.4674 5.71405L18.7321 6.49983C20.0875 6.69627 20.4018 7.63919 19.4 8.60177L15.589 12.3145L16.473 17.5792C16.6891 18.9347 15.9033 19.5044 14.6853 18.8561L9.97071 16.3613L5.23643 18.8168C4.01848 19.4454 3.21307 18.8757 3.46844 17.5203L4.39173 12.2753L0.580731 8.54283C-0.401484 7.58026 -0.0871755 6.63734 1.26828 6.46054L6.5526 5.71405L8.92956 0.920842Z" fill="#FFD919"/>
<g style="mix-blend-mode:soft-light" opacity="0.4">
<path d="M9.73498 11.9409C13.7817 10.7623 17.1605 8.79785 19.2625 6.65662C19.1053 6.59769 18.9285 6.5584 18.7321 6.51911C16.9837 6.26373 15.2157 5.98871 13.4674 5.73334C13.4085 5.61547 13.3495 5.51725 13.3102 5.39939C12.8584 4.4761 12.4066 3.55282 11.9548 2.62954C11.6798 2.05985 11.4047 1.50981 11.1297 0.940128C10.8351 0.331155 10.4422 0.0168457 10.0493 0.0168457C9.6564 0.0168457 9.24387 0.31151 8.92956 0.940128C8.14379 2.53132 7.33837 4.12251 6.5526 5.71369C5.31501 5.89049 4.09706 6.06729 2.85947 6.24409C2.32907 6.32267 1.79868 6.40124 1.26828 6.46018C-0.0871755 6.65662 -0.401484 7.5799 0.580731 8.54247C1.34686 9.28896 2.11299 10.0551 2.87911 10.8016C3.38987 11.2927 3.88097 11.7838 4.39173 12.2749C4.35244 12.491 4.31315 12.7267 4.27386 12.9428C6.00256 12.8053 7.84912 12.491 9.73498 11.9409Z" fill="white"/>
</g>
<g opacity="0.3">
<path opacity="0.3" d="M4.43094 12.0395L0.580661 8.2481C0.246708 7.91415 0.0699072 7.59984 0.0109743 7.30518C-0.0479586 7.65877 0.128842 8.09095 0.580661 8.52312L4.39165 12.2555L4.43094 12.0395Z" fill="white"/>
<path opacity="0.3" d="M14.6653 18.581L9.95071 16.0862L5.21643 18.5417C4.19493 19.0721 3.46809 18.7382 3.40916 17.8149C3.33058 18.9346 4.09671 19.3864 5.21643 18.8167L9.95071 16.3612L14.6653 18.856C15.7851 19.4454 16.5512 18.9935 16.4923 17.8542C16.4333 18.7971 15.7065 19.1311 14.6653 18.581Z" fill="white"/>
<path opacity="0.3" d="M19.3802 8.38555L15.5496 12.0983L15.5888 12.3341L19.3802 8.66057C19.832 8.2284 20.0088 7.79622 19.9499 7.44263C19.891 7.71765 19.7142 8.0516 19.3802 8.38555Z" fill="white"/>
</g>
</svg>
